<svg width="34" height="34" viewBox="0 0 34 34" fill="none" xmlns="http://www.w3.org/2000/svg">
<mask id="mask0_389_2247" style="mask-type:alpha" maskUnits="userSpaceOnUse" x="0" y="0" width="34" height="34">
<rect width="34" height="34" fill="#D9D9D9"/>
</mask>
<g mask="url(#mask0_389_2247)">
<path d="M8.49984 28.3337C7.72067 28.3337 7.05366 28.0562 6.4988 27.5014C5.94393 26.9465 5.6665 26.2795 5.6665 25.5003C5.6665 24.7212 5.94393 24.0541 6.4988 23.4993C7.05366 22.9444 7.72067 22.667 8.49984 22.667C9.279 22.667 9.94602 22.9444 10.5009 23.4993C11.0557 24.0541 11.3332 24.7212 11.3332 25.5003C11.3332 26.2795 11.0557 26.9465 10.5009 27.5014C9.94602 28.0562 9.279 28.3337 8.49984 28.3337ZM16.9998 28.3337C16.2207 28.3337 15.5537 28.0562 14.9988 27.5014C14.4439 26.9465 14.1665 26.2795 14.1665 25.5003C14.1665 24.7212 14.4439 24.0541 14.9988 23.4993C15.5537 22.9444 16.2207 22.667 16.9998 22.667C17.779 22.667 18.446 22.9444 19.0009 23.4993C19.5557 24.0541 19.8332 24.7212 19.8332 25.5003C19.8332 26.2795 19.5557 26.9465 19.0009 27.5014C18.446 28.0562 17.779 28.3337 16.9998 28.3337ZM25.4998 28.3337C24.7207 28.3337 24.0537 28.0562 23.4988 27.5014C22.9439 26.9465 22.6665 26.2795 22.6665 25.5003C22.6665 24.7212 22.9439 24.0541 23.4988 23.4993C24.0537 22.9444 24.7207 22.667 25.4998 22.667C26.279 22.667 26.946 22.9444 27.5009 23.4993C28.0557 24.0541 28.3332 24.7212 28.3332 25.5003C28.3332 26.2795 28.0557 26.9465 27.5009 27.5014C26.946 28.0562 26.279 28.3337 25.4998 28.3337ZM8.49984 19.8337C7.72067 19.8337 7.05366 19.5562 6.4988 19.0014C5.94393 18.4465 5.6665 17.7795 5.6665 17.0003C5.6665 16.2212 5.94393 15.5541 6.4988 14.9993C7.05366 14.4444 7.72067 14.167 8.49984 14.167C9.279 14.167 9.94602 14.4444 10.5009 14.9993C11.0557 15.5541 11.3332 16.2212 11.3332 17.0003C11.3332 17.7795 11.0557 18.4465 10.5009 19.0014C9.94602 19.5562 9.279 19.8337 8.49984 19.8337ZM16.9998 19.8337C16.2207 19.8337 15.5537 19.5562 14.9988 19.0014C14.4439 18.4465 14.1665 17.7795 14.1665 17.0003C14.1665 16.2212 14.4439 15.5541 14.9988 14.9993C15.5537 14.4444 16.2207 14.167 16.9998 14.167C17.779 14.167 18.446 14.4444 19.0009 14.9993C19.5557 15.5541 19.8332 16.2212 19.8332 17.0003C19.8332 17.7795 19.5557 18.4465 19.0009 19.0014C18.446 19.5562 17.779 19.8337 16.9998 19.8337ZM25.4998 19.8337C24.7207 19.8337 24.0537 19.5562 23.4988 19.0014C22.9439 18.4465 22.6665 17.7795 22.6665 17.0003C22.6665 16.2212 22.9439 15.5541 23.4988 14.9993C24.0537 14.4444 24.7207 14.167 25.4998 14.167C26.279 14.167 26.946 14.4444 27.5009 14.9993C28.0557 15.5541 28.3332 16.2212 28.3332 17.0003C28.3332 17.7795 28.0557 18.4465 27.5009 19.0014C26.946 19.5562 26.279 19.8337 25.4998 19.8337ZM8.49984 11.3337C7.72067 11.3337 7.05366 11.0562 6.4988 10.5014C5.94393 9.94651 5.6665 9.27949 5.6665 8.50033C5.6665 7.72116 5.94393 7.05414 6.4988 6.49928C7.05366 5.94442 7.72067 5.66699 8.49984 5.66699C9.279 5.66699 9.94602 5.94442 10.5009 6.49928C11.0557 7.05414 11.3332 7.72116 11.3332 8.50033C11.3332 9.27949 11.0557 9.94651 10.5009 10.5014C9.94602 11.0562 9.279 11.3337 8.49984 11.3337ZM16.9998 11.3337C16.2207 11.3337 15.5537 11.0562 14.9988 10.5014C14.4439 9.94651 14.1665 9.27949 14.1665 8.50033C14.1665 7.72116 14.4439 7.05414 14.9988 6.49928C15.5537 5.94442 16.2207 5.66699 16.9998 5.66699C17.779 5.66699 18.446 5.94442 19.0009 6.49928C19.5557 7.05414 19.8332 7.72116 19.8332 8.50033C19.8332 9.27949 19.5557 9.94651 19.0009 10.5014C18.446 11.0562 17.779 11.3337 16.9998 11.3337ZM25.4998 11.3337C24.7207 11.3337 24.0537 11.0562 23.4988 10.5014C22.9439 9.94651 22.6665 9.27949 22.6665 8.50033C22.6665 7.72116 22.9439 7.05414 23.4988 6.49928C24.0537 5.94442 24.7207 5.66699 25.4998 5.66699C26.279 5.66699 26.946 5.94442 27.5009 6.49928C28.0557 7.05414 28.3332 7.72116 28.3332 8.50033C28.3332 9.27949 28.0557 9.94651 27.5009 10.5014C26.946 11.0562 26.279 11.3337 25.4998 11.3337Z" fill="#969696"/>
</g>
</svg>
